<?xml version="1.0" encoding="UTF-8"?>
<svg version="1.1" xmlns="http://www.w3.org/2000/svg" width="578" height="432">
<path d="M0 0 C3.17263649 0.12772952 5.8895172 -0.31487351 9.0078125 -0.87890625 C20.22413143 -1.70924054 20.22413143 -1.70924054 25.6328125 0.80859375 C29.6340121 4.70449863 31.69397833 8.50105312 32.17578125 14.05859375 C32.24548021 21.41880376 31.50545382 28.98300662 28.98974609 35.93408203 C28.00681443 39.12433314 27.72696607 41.68341317 27.6640625 45.0078125 C27.61958984 46.66393555 27.61958984 46.66393555 27.57421875 48.35351562 C27.55230469 49.49369141 27.53039062 50.63386719 27.5078125 51.80859375 C27.01801038 76.86053166 27.01801038 76.86053166 20.0078125 84.12109375 C17.0078125 85.30859375 17.0078125 85.30859375 14.0078125 85.12109375 C10.47875183 83.51697527 9.18008342 82.37950013 7.0078125 79.12109375 C6.53710938 76.91625977 6.53710938 76.91625977 6.2265625 74.375 C6.10667969 73.45525391 5.98679688 72.53550781 5.86328125 71.58789062 C5.74597656 70.62947266 5.62867188 69.67105469 5.5078125 68.68359375 C5.27489159 66.78823186 5.03554133 64.89364649 4.7890625 63 C4.68658203 62.16025635 4.58410156 61.3205127 4.47851562 60.45532227 C3.99470387 58.05608772 3.20078722 56.24707513 2.0078125 54.12109375 C-0.43698829 54.30938147 -0.43698829 54.30938147 -2.9921875 55.12109375 C-5.97846629 59.24701251 -5.70564266 64.74741406 -6.11523438 69.65820312 C-6.64489529 75.03593154 -7.40918228 80.98343426 -11.8046875 84.62109375 C-14.89029178 85.32637473 -16.95718256 85.00630352 -19.9921875 84.12109375 C-24.08407848 81.16583915 -24.94595923 77.94983963 -25.9921875 73.12109375 C-26.80809787 67.9161483 -27.00916672 63.07279334 -26.82592773 57.81469727 C-26.54297695 48.92443311 -27.30819462 41.5265004 -30.12597656 33.10180664 C-33.05227888 24.25831777 -34.61254013 14.77132179 -31.015625 5.89453125 C-24.9880035 -4.55027853 -9.96216228 -1.01119692 0 0 Z M-24.9921875 8.12109375 C-27.74283787 12.66354101 -27.57521438 16.95616152 -26.9921875 22.12109375 C-25.72485557 27.21909414 -24.34932926 32.40681022 -21.9921875 37.12109375 C-21.87360885 39.0001798 -21.81310569 40.88307075 -21.78125 42.765625 C-21.75289062 43.91869141 -21.72453125 45.07175781 -21.6953125 46.25976562 C-21.64414582 48.66587887 -21.59962308 51.07214474 -21.5625 53.47851562 C-21.35090119 61.46196252 -20.85335193 69.58398207 -17.9921875 77.12109375 C-17.0021875 77.45109375 -16.0121875 77.78109375 -14.9921875 78.12109375 C-12.96376462 72.6191055 -12.08136651 67.16760683 -11.22460938 61.3984375 C-10.48596504 56.83598244 -9.41814579 53.14160774 -6.9921875 49.12109375 C-3.53649311 47.39324656 0.22903249 47.63611664 4.0078125 48.12109375 C7.96637744 50.86163871 9.49655702 54.47689954 10.3996582 59.14770508 C10.89392818 62.29897422 11.3463366 65.45445175 11.77539062 68.61523438 C12.41344028 72.8630235 12.8938558 75.92039731 16.0078125 79.12109375 C16.4821875 78.06921875 16.9565625 77.01734375 17.4453125 75.93359375 C17.71214844 75.34191406 17.97898438 74.75023437 18.25390625 74.140625 C19.90869274 69.70785498 20.12789427 65.44638508 20.1484375 60.74609375 C20.16777344 59.51246094 20.18710938 58.27882812 20.20703125 57.0078125 C20.24047512 54.44807023 20.25908233 51.88808438 20.26171875 49.328125 C20.41691841 41.44561592 21.61473009 35.28459674 24.84277344 28.07226562 C26.72146042 23.3133452 27.48799213 18.22300231 27.0078125 13.12109375 C25.17049924 9.01131408 23.14346798 6.91842077 19.0078125 5.12109375 C16.08387878 4.97446393 16.08387878 4.97446393 13.0078125 5.43359375 C4.63007208 6.29992827 -3.71123278 6.89169262 -11.9921875 5.12109375 C-17.10125602 4.61792791 -20.86170358 4.71951876 -24.9921875 8.12109375 Z " fill="#827E5C" transform="translate(141.9921875,174.87890625)"/>
<path d="M0 0 C6.15234375 -0.09765625 6.15234375 -0.09765625 8 0 C9 1 9 1 9.0625 4.5625 C9.041875 5.696875 9.02125 6.83125 9 8 C11.97 8 14.94 8 18 8 C18 10.64 18 13.28 18 16 C15.03 16 12.06 16 9 16 C9.01160156 17.21558594 9.02320313 18.43117187 9.03515625 19.68359375 C9.04453278 21.26822764 9.05363313 22.85286318 9.0625 24.4375 C9.07087891 25.23994141 9.07925781 26.04238281 9.08789062 26.86914062 C9.0965143 28.91295221 9.0522815 30.95683902 9 33 C8.67 33.33 8.34 33.66 8 34 C5.36 34 2.72 34 0 34 C0 28.06 0 22.12 0 16 C-2.31 16 -4.62 16 -7 16 C-7.2475 16.721875 -7.495 17.44375 -7.75 18.1875 C-9.12877913 21.28975304 -10.70945672 23.50122551 -13 26 C-13.99 26.33 -14.98 26.66 -16 27 C-15.979375 27.969375 -15.95875 28.93875 -15.9375 29.9375 C-16 33 -16 33 -17 34 C-19.45492501 34.18063984 -21.85504249 34.27801743 -24.3125 34.3125 C-24.98990234 34.34150391 -25.66730469 34.37050781 -26.36523438 34.40039062 C-29.79949121 34.44403221 -31.64749671 34.26708246 -34.41796875 32.16796875 C-37.1575654 28.41370667 -37.18785512 25.15121841 -37.25 20.625 C-37.27578125 19.50351563 -37.3015625 18.38203125 -37.328125 17.2265625 C-36.96680751 13.67360717 -36.12554458 11.83749883 -34 9 C-30.49291173 7.24645586 -26.48788251 7.81535716 -22.625 7.8125 C-21.76132812 7.80025391 -20.89765625 7.78800781 -20.0078125 7.77539062 C-19.1725 7.77345703 -18.3371875 7.77152344 -17.4765625 7.76953125 C-16.3330835 7.76336792 -16.3330835 7.76336792 -15.16650391 7.75708008 C-12.73589931 8.02961237 -11.10908014 8.79160424 -9 10 C-8.67 9.34 -8.34 8.68 -8 8 C-6.02 8 -4.04 8 -2 8 C-2 7.34 -2 6.68 -2 6 C-1.34 6 -0.68 6 0 6 C0 4.02 0 2.04 0 0 Z M-28 16 C-27.67 16.99 -27.34 17.98 -27 19 C-23.535 18.505 -23.535 18.505 -20 18 C-20 17.34 -20 16.68 -20 16 C-22.64 16 -25.28 16 -28 16 Z " fill="#292728" transform="translate(331,201)"/>
<path d="M0 0 C3.17263649 0.12772952 5.8895172 -0.31487351 9.0078125 -0.87890625 C20.22413143 -1.70924054 20.22413143 -1.70924054 25.6328125 0.80859375 C29.6340121 4.70449863 31.69397833 8.50105312 32.17578125 14.05859375 C32.24548021 21.41880376 31.50545382 28.98300662 28.98974609 35.93408203 C28.00681443 39.12433314 27.72696607 41.68341317 27.6640625 45.0078125 C27.61958984 46.66393555 27.61958984 46.66393555 27.57421875 48.35351562 C27.55230469 49.49369141 27.53039062 50.63386719 27.5078125 51.80859375 C27.08200845 73.58721875 27.08200845 73.58721875 22.0078125 82.12109375 C21.6778125 82.12109375 21.3478125 82.12109375 21.0078125 82.12109375 C21.0078125 80.47109375 21.0078125 78.82109375 21.0078125 77.12109375 C20.6778125 77.45109375 20.3478125 77.78109375 20.0078125 78.12109375 C17.69302848 74.64891772 18.08709831 73.61427558 18.70117188 69.68115234 C19.07104453 66.59318689 19.11556093 63.56298935 19.1484375 60.453125 C19.16777344 59.22916016 19.18710938 58.00519531 19.20703125 56.74414062 C19.24062303 54.2234652 19.25909418 51.7025385 19.26171875 49.18164062 C19.41753327 41.35401116 20.6421562 35.24206096 23.84277344 28.07885742 C25.71872705 23.31624678 26.48824837 18.22572482 26.0078125 13.12109375 C24.72512824 10.33125549 23.66872732 8.60718594 21.19140625 6.78515625 C18.30322053 5.90681712 16.06756704 6.16265381 13.0703125 6.49609375 C4.66403321 7.29217882 -3.68928695 7.86620257 -11.9921875 6.12109375 C-16.0636051 5.86331312 -20.083489 5.81819425 -23.9921875 7.12109375 C-23.9921875 6.46109375 -23.9921875 5.80109375 -23.9921875 5.12109375 C-27.11003863 5.76754036 -27.11003863 5.76754036 -27.9921875 8.12109375 C-28.9821875 8.12109375 -29.9721875 8.12109375 -30.9921875 8.12109375 C-30.08896433 4.50820107 -29.05482451 3.17147569 -26.1171875 0.80859375 C-18.44590343 -3.12214685 -8.23083014 -0.8354602 0 0 Z " fill="#7F7D58" transform="translate(141.9921875,174.87890625)"/>
<path d="M0 0 C2.10971952 -0.01715416 4.21784747 -0.06101327 6.32714844 -0.10522461 C7.67349108 -0.11535675 9.01984706 -0.12387123 10.36621094 -0.13061523 C12.2026416 -0.15248901 12.2026416 -0.15248901 14.07617188 -0.17480469 C18.04971842 0.39011977 19.6902838 1.3378824 22.38183594 4.29516602 C22.94946289 6.76879883 22.94946289 6.76879883 22.87011719 9.49829102 C22.85400391 10.47797852 22.83789062 11.45766602 22.82128906 12.46704102 C22.75844727 13.99071289 22.75844727 13.99071289 22.69433594 15.54516602 C22.67177734 16.57641602 22.64921875 17.60766602 22.62597656 18.67016602 C22.56710757 21.21330667 22.48493658 23.75349714 22.38183594 26.29516602 C20.07183594 26.29516602 17.76183594 26.29516602 15.38183594 26.29516602 C15.38183594 21.01516602 15.38183594 15.73516602 15.38183594 10.29516602 C14.06183594 9.96516602 12.74183594 9.63516602 11.38183594 9.29516602 C11.29095703 11.01026367 11.29095703 11.01026367 11.19824219 12.76000977 C11.11385166 14.25090906 11.02920292 15.74179376 10.94433594 17.23266602 C10.90501953 17.98741211 10.86570313 18.7421582 10.82519531 19.51977539 C10.49511719 25.18188477 10.49511719 25.18188477 9.38183594 26.29516602 C5.88183594 26.42016602 5.88183594 26.42016602 2.38183594 26.29516602 C1.38183594 25.29516602 1.38183594 25.29516602 1.28417969 21.47875977 C1.29085505 19.8966992 1.30281718 18.31465443 1.31933594 16.73266602 C1.32610352 15.52320313 1.32610352 15.52320313 1.33300781 14.28930664 C1.34483076 12.29122845 1.3627668 10.29318819 1.38183594 8.29516602 C-1.25816406 8.29516602 -3.89816406 8.29516602 -6.61816406 8.29516602 C-6.61816406 14.23516602 -6.61816406 20.17516602 -6.61816406 26.29516602 C-8.92816406 26.29516602 -11.23816406 26.29516602 -13.61816406 26.29516602 C-13.64703157 22.14934715 -13.66491734 18.00355385 -13.68066406 13.85766602 C-13.68904297 12.67366211 -13.69742188 11.4896582 -13.70605469 10.26977539 C-13.70927734 9.14506836 -13.7125 8.02036133 -13.71582031 6.86157227 C-13.72105713 5.8194458 -13.72629395 4.77731934 -13.73168945 3.70361328 C-13.45215332 -2.22676085 -4.63533372 0.02627619 0 0 Z " fill="#292728" transform="translate(241.6181640625,208.704833984375)"/>
<path d="M0 0 C2.97 0 5.94 0 9 0 C10.41634833 2.83269666 10.3463005 5.47466438 10.5625 8.625 C10.64628906 9.81351563 10.73007812 11.00203125 10.81640625 12.2265625 C10.87699219 13.14179688 10.93757813 14.05703125 11 15 C11.52207031 14.6390625 12.04414063 14.278125 12.58203125 13.90625 C18.84066314 9.96035248 23.6899803 9.38513853 31 10 C29.55218207 13.44428265 27.72305391 15.36130962 24.875 17.75 C23.78832031 18.67039063 23.78832031 18.67039063 22.6796875 19.609375 C22.12539063 20.06828125 21.57109375 20.5271875 21 21 C21.51776621 25.10447392 23.64627444 26.95699523 26.5625 29.75 C27.38878906 30.54921875 28.21507812 31.3484375 29.06640625 32.171875 C29.70449219 32.77515625 30.34257812 33.3784375 31 34 C30.67 34.66 30.34 35.32 30 36 C25.7761469 36.61597858 22.37804757 36.92343394 18.7265625 34.4765625 C17.35878081 33.23081338 16.02269535 31.94904156 14.7265625 30.62890625 C12.99194971 28.76342531 12.99194971 28.76342531 10 28 C10.061875 29.423125 10.061875 29.423125 10.125 30.875 C10 34 10 34 8 36 C4.4375 36.1875 4.4375 36.1875 1 36 C0 35 0 35 -0.11352539 31.67358398 C-0.11336629 30.19774444 -0.10767314 28.72189931 -0.09765625 27.24609375 C-0.09553383 26.08292381 -0.09553383 26.08292381 -0.09336853 24.89625549 C-0.08775345 22.40996506 -0.07519846 19.9237634 -0.0625 17.4375 C-0.05748694 15.75586067 -0.0529237 14.07421994 -0.04882812 12.39257812 C-0.03777913 8.26168434 -0.02050445 4.13085724 0 0 Z " fill="#232021" transform="translate(435,199)"/>
<path d="M0 0 C2.72977064 -0.08126109 5.4571017 -0.14061663 8.1875 -0.1875 C9.34088867 -0.22520508 9.34088867 -0.22520508 10.51757812 -0.26367188 C15.18812274 -0.32380764 18.21957455 -0.05424203 22 3 C24.49876237 6.74814356 24.13599495 8.43983732 23.8125 12.875 C23.73644531 14.08929688 23.66039062 15.30359375 23.58203125 16.5546875 C22.98408881 20.09418569 22.12771245 22.13841154 20 25 C16.63686091 26.68156955 12.88233413 26.22674377 9.1875 26.25 C7.97610352 26.2809375 7.97610352 26.2809375 6.74023438 26.3125 C2.00207208 26.34354447 -1.16395816 26.10500833 -5 23 C-6.5121867 19.97562661 -6.17263369 17.33758466 -6 14 C-4.81232145 10.61968411 -4.10174775 10.06783183 -1 8 C-0.42251197 6.03638136 -0.42251197 6.03638136 -0.3125 3.875 C-0.209375 2.59625 -0.10625 1.3175 0 0 Z M6 16 C6 16.66 6 17.32 6 18 C7.98 18 9.96 18 12 18 C12.33 17.34 12.66 16.68 13 16 C10.69 16 8.38 16 6 16 Z " fill="#292526" transform="translate(381,209)"/>
<path d="M0 0 C1.20366211 0.00483398 1.20366211 0.00483398 2.43164062 0.00976562 C3.68170898 0.02233398 3.68170898 0.02233398 4.95703125 0.03515625 C5.80201172 0.03966797 6.64699219 0.04417969 7.51757812 0.04882812 C9.6015928 0.06060222 11.68557102 0.07853735 13.76953125 0.09765625 C13.752854 0.72124023 13.73617676 1.34482422 13.71899414 1.98730469 C13.70602295 2.80231445 13.69305176 3.61732422 13.6796875 4.45703125 C13.66301025 5.26624023 13.64633301 6.07544922 13.62915039 6.90917969 C13.81225068 9.76363357 14.89445204 10.99756753 16.76953125 13.09765625 C17.76361254 16.07990012 17.88143772 17.67037701 17.08203125 20.72265625 C15.58731935 23.42737302 14.38255547 24.47802504 11.76953125 26.09765625 C9.49536133 26.45410156 9.49536133 26.45410156 7.0390625 26.42578125 C6.15412109 26.420625 5.26917969 26.41546875 4.35742188 26.41015625 C3.44154297 26.38953125 2.52566406 26.36890625 1.58203125 26.34765625 C0.19081055 26.33992188 0.19081055 26.33992188 -1.22851562 26.33203125 C-8.07624271 26.25188229 -8.07624271 26.25188229 -9.23046875 25.09765625 C-9.23046875 22.78765625 -9.23046875 20.47765625 -9.23046875 18.09765625 C-4.61046875 18.09765625 0.00953125 18.09765625 4.76953125 18.09765625 C4.76953125 17.43765625 4.76953125 16.77765625 4.76953125 16.09765625 C4.17785156 16.1440625 3.58617187 16.19046875 2.9765625 16.23828125 C-1.03236522 16.42139703 -3.63514214 16.38924479 -7.29296875 14.59765625 C-10.15850956 10.90018424 -9.74328571 8.7130089 -9.23046875 4.09765625 C-6.57329512 0.11189581 -4.50098878 -0.03192191 0 0 Z " fill="#2B2829" transform="translate(208.23046875,208.90234375)"/>
<path d="M0 0 C0.99 0 1.98 0 3 0 C2.125 4.75 2.125 4.75 1 7 C-0.06317282 15.59252789 2.1515738 24.3031476 6 32 C6.11857865 33.87908605 6.17908181 35.761977 6.2109375 37.64453125 C6.23929688 38.79759766 6.26765625 39.95066406 6.296875 41.13867188 C6.34804168 43.54478512 6.39256442 45.95105099 6.4296875 48.35742188 C6.64756677 56.57782527 7.87650149 64.06344203 10 72 C10.33524191 73.33285474 10.66943519 74.66597759 11 76 C11.66 76 12.32 76 13 76 C13.33 76.99 13.66 77.98 14 79 C11.36660393 79.73149891 9.5438281 80.1439545 6.875 79.4375 C1.98829173 75.69102366 1.21888836 69.53709539 0.3203125 63.7890625 C-0.00087018 59.98970638 0.02537925 56.32579783 0.12011719 52.52001953 C0.34036242 43.67031064 -0.30114272 36.38376614 -3.13842773 27.98852539 C-5.83967824 19.8945011 -7.02383208 11.40668711 -5 3 C-3.68 3 -2.36 3 -1 3 C-0.67 2.01 -0.34 1.02 0 0 Z " fill="#757345" transform="translate(115,180)"/>
<path d="M0 0 C0.89267578 0.00322266 1.78535156 0.00644531 2.70507812 0.00976562 C4.09823242 0.02233398 4.09823242 0.02233398 5.51953125 0.03515625 C6.45990234 0.03966797 7.40027344 0.04417969 8.36914062 0.04882812 C10.69016837 0.06060999 13.01106769 0.07706067 15.33203125 0.09765625 C15.33203125 2.73765625 15.33203125 5.37765625 15.33203125 8.09765625 C10.05203125 8.09765625 4.77203125 8.09765625 -0.66796875 8.09765625 C-0.99796875 11.39765625 -1.32796875 14.69765625 -1.66796875 18.09765625 C-0.46398437 18.07445312 0.74 18.05125 1.98046875 18.02734375 C3.5559834 18.00858762 5.13150473 17.99038726 6.70703125 17.97265625 C7.50109375 17.95589844 8.29515625 17.93914062 9.11328125 17.921875 C11.1869514 17.90430152 13.26086366 17.99430457 15.33203125 18.09765625 C17.33203125 20.09765625 17.33203125 20.09765625 17.51953125 22.66015625 C17.33203125 25.09765625 17.33203125 25.09765625 16.33203125 26.09765625 C12.92434299 26.40509453 9.50188003 26.37609401 6.08203125 26.41015625 C5.12683594 26.43916016 4.17164063 26.46816406 3.1875 26.49804688 C-3.90559027 26.56217078 -3.90559027 26.56217078 -7.77734375 24.203125 C-11.02523863 20.58615116 -10.8576176 18.08810202 -10.91796875 13.28515625 C-10.94375 12.06183594 -10.96953125 10.83851563 -10.99609375 9.578125 C-10.64536781 5.85792482 -9.97118907 4.00896979 -7.66796875 1.09765625 C-4.78531726 0.13677242 -2.99134604 -0.01905316 0 0 Z " fill="#4C4A4B" transform="translate(416.66796875,208.90234375)"/>
<path d="M0 0 C0.88042969 -0.01224609 1.76085937 -0.02449219 2.66796875 -0.03710938 C3.50972656 -0.03904297 4.35148437 -0.04097656 5.21875 -0.04296875 C5.99154297 -0.04707764 6.76433594 -0.05118652 7.56054688 -0.05541992 C9.5 0.1875 9.5 0.1875 11.5 2.1875 C10.51 2.5175 9.52 2.8475 8.5 3.1875 C8.5 2.5275 8.5 1.8675 8.5 1.1875 C3.55 1.8475 -1.4 2.5075 -6.5 3.1875 C-6.17 4.1775 -5.84 5.1675 -5.5 6.1875 C-0.055 5.6925 -0.055 5.6925 5.5 5.1875 C5.5 6.1775 5.5 7.1675 5.5 8.1875 C1.87 8.5175 -1.76 8.8475 -5.5 9.1875 C-5.5 10.321875 -5.5 11.45625 -5.5 12.625 C-5.5 14.14583333 -5.5 15.66666667 -5.5 17.1875 C-2.2 17.1875 1.1 17.1875 4.5 17.1875 C4.5 16.5275 4.5 15.8675 4.5 15.1875 C5.16 15.1875 5.82 15.1875 6.5 15.1875 C6.5 14.5275 6.5 13.8675 6.5 13.1875 C8.81 12.5275 11.12 11.8675 13.5 11.1875 C12.49321219 14.57396809 12.0477471 15.88754326 8.875 17.625 C8.09125 18.140625 7.3075 18.65625 6.5 19.1875 C6.16638081 22.27141002 6.16638081 22.27141002 6.5 25.1875 C4.52203715 27.16546285 0.87953454 26.4622259 -1.8125 26.5 C-2.82860352 26.54350586 -2.82860352 26.54350586 -3.86523438 26.58789062 C-7.29949121 26.63153221 -9.14749671 26.45458246 -11.91796875 24.35546875 C-14.6575654 20.60120667 -14.68785512 17.33871841 -14.75 12.8125 C-14.77578125 11.69101563 -14.8015625 10.56953125 -14.828125 9.4140625 C-14.46680751 5.86110717 -13.62554458 4.02499883 -11.5 1.1875 C-7.9639604 -0.5805198 -3.89428745 0.00285087 0 0 Z " fill="#383537" transform="translate(308.5,208.8125)"/>
<path d="M0 0 C1.13598633 0.00483398 1.13598633 0.00483398 2.29492188 0.00976562 C3.47344727 0.02233398 3.47344727 0.02233398 4.67578125 0.03515625 C5.47306641 0.03966797 6.27035156 0.04417969 7.09179688 0.04882812 C9.05732382 0.06059775 11.0228121 0.07853277 12.98828125 0.09765625 C13.98828125 3.09765625 13.98828125 3.09765625 12.98828125 8.09765625 C8.36828125 8.42765625 3.74828125 8.75765625 -1.01171875 9.09765625 C-1.34171875 14.70765625 -1.67171875 20.31765625 -2.01171875 26.09765625 C-4.65171875 26.09765625 -7.29171875 26.09765625 -10.01171875 26.09765625 C-10.09896581 22.68115105 -10.152192 19.26493312 -10.19921875 15.84765625 C-10.22435547 14.87957031 -10.24949219 13.91148437 -10.27539062 12.9140625 C-10.28505859 11.97949219 -10.29472656 11.04492188 -10.3046875 10.08203125 C-10.32039795 9.22319336 -10.3361084 8.36435547 -10.35229492 7.47949219 C-9.93373851 4.5522977 -9.03901109 3.22428206 -7.01171875 1.09765625 C-4.30455633 0.19526878 -2.77395107 -0.02085677 0 0 Z " fill="#5D5B5C" transform="translate(361.01171875,208.90234375)"/>
<path d="M0 0 C2.33294775 -0.04241723 4.66702567 -0.04092937 7 0 C8 1 8 1 8.11352539 3.59204102 C8.10828857 4.71795654 8.10305176 5.84387207 8.09765625 7.00390625 C8.09443359 8.21884766 8.09121094 9.43378906 8.08789062 10.68554688 C8.07951172 11.96494141 8.07113281 13.24433594 8.0625 14.5625 C8.05798828 15.84576172 8.05347656 17.12902344 8.04882812 18.45117188 C8.03699545 21.63416022 8.02051068 24.81705762 8 28 C9.65 28 11.3 28 13 28 C13.04241723 30.33294775 13.04092937 32.66702567 13 35 C12 36 12 36 8.6875 36.3125 C5 36 5 36 2.625 34.125 C-0.25885743 30.35380182 -0.11752895 27.97189072 -0.09765625 23.2421875 C-0.0962413 22.57913605 -0.09482635 21.91608459 -0.09336853 21.23294067 C-0.08776754 19.11358137 -0.075215 16.99432741 -0.0625 14.875 C-0.05748512 13.43880361 -0.05292219 12.00260556 -0.04882812 10.56640625 C-0.03779782 7.04423655 -0.02053259 3.52212855 0 0 Z " fill="#2F2D2E" transform="translate(280,199)"/>
<path d="M0 0 C-0.0946919 4.3562125 -0.20101528 8.71195222 -0.31738281 13.06762695 C-0.35528686 14.54443929 -0.39020113 16.02133192 -0.421875 17.49829102 C-0.92012178 40.45656845 -0.92012178 40.45656845 -6 49 C-6.33 49 -6.66 49 -7 49 C-7 47.35 -7 45.7 -7 44 C-7.495 44.495 -7.495 44.495 -8 45 C-10.30861009 41.53708486 -9.93059992 40.51727377 -9.31982422 36.59521484 C-8.92705726 33.40810586 -8.83650291 30.26092414 -8.75390625 27.05078125 C-8.72103516 25.79072266 -8.68816406 24.53066406 -8.65429688 23.23242188 C-8.59282674 20.6075164 -8.53557179 17.982509 -8.48242188 15.35742188 C-8.44826172 14.10123047 -8.41410156 12.84503906 -8.37890625 11.55078125 C-8.3538501 10.41294189 -8.32879395 9.27510254 -8.30297852 8.1027832 C-7.99997983 4.99979339 -7.41599743 2.76827341 -6 0 C-3.50907189 -1.24546405 -2.58919267 -0.7767578 0 0 Z " fill="#827C5C" transform="translate(170,208)"/>
<path d="M0 0 C-1.44781793 3.44428265 -3.27694609 5.36130962 -6.125 7.75 C-7.21167969 8.67039063 -7.21167969 8.67039063 -8.3203125 9.609375 C-9.15175781 10.29773438 -9.15175781 10.29773438 -10 11 C-9.48223379 15.10447392 -7.35372556 16.95699523 -4.4375 19.75 C-3.61121094 20.54921875 -2.78492188 21.3484375 -1.93359375 22.171875 C-1.29550781 22.77515625 -0.65742188 23.3784375 0 24 C-0.33 24.66 -0.66 25.32 -1 26 C-5.7990943 26.61923797 -8.57615417 26.85550401 -12.7890625 24.32421875 C-19.71034202 18.86897394 -19.71034202 18.86897394 -21 15 C-20.0625 12.8125 -20.0625 12.8125 -19 11 C-19.66 10.34 -20.32 9.68 -21 9 C-19.25528179 4.93767103 -17.1715848 3.21900687 -13.44140625 0.97265625 C-9.06301071 -0.77169653 -4.62724163 -0.38276815 0 0 Z " fill="#302E2F" transform="translate(466,209)"/>
<path d="M0 0 C0.66 2.64 1.32 5.28 2 8 C-3.625 11 -3.625 11 -7 11 C-7 11.66 -7 12.32 -7 13 C-7.66 13 -8.32 13 -9 13 C-9 13.66 -9 14.32 -9 15 C-12.96 15.33 -16.92 15.66 -21 16 C-20.67 15.34 -20.34 14.68 -20 14 C-19.95977609 11.6670134 -19.95679753 9.33293334 -20 7 C-19.34 7 -18.68 7 -18 7 C-18 7.66 -18 8.32 -18 9 C-14.535 8.505 -14.535 8.505 -11 8 C-11 7.34 -11 6.68 -11 6 C-10.01 5.34 -9.02 4.68 -8 4 C-11.63 4 -15.26 4 -19 4 C-19.66 2.68 -20.32 1.36 -21 0 C-13.78194245 -0.7938642 -7.19172157 -1.07875823 0 0 Z " fill="#201D1E" transform="translate(322,211)"/>
<path d="M0 0 C0.03738281 1.14855469 0.07476562 2.29710937 0.11328125 3.48046875 C0.4925806 13.02685618 1.44741917 21.76076722 4 31 C4.33645741 32.33254842 4.6711328 33.66555808 5 35 C5.66 35 6.32 35 7 35 C7.33 35.99 7.66 36.98 8 38 C5.36660393 38.73149891 3.5438281 39.1439545 0.875 38.4375 C-2.7506321 35.65784872 -4.11697114 31.35488118 -5 27 C-5.27094696 23.17011795 -5.27700257 19.33845576 -5.3125 15.5 C-5.34150391 14.45457031 -5.37050781 13.40914062 -5.40039062 12.33203125 C-5.40876953 11.32527344 -5.41714844 10.31851563 -5.42578125 9.28125 C-5.44036377 8.36408203 -5.45494629 7.44691406 -5.4699707 6.50195312 C-4.97357004 3.8592965 -3.2085193 0 0 0 Z " fill="#646036" transform="translate(121,221)"/>
<path d="M0 0 C2.64 0 5.28 0 8 0 C8 8.58 8 17.16 8 26 C5.36 26 2.72 26 0 26 C0 17.42 0 8.84 0 0 Z " fill="#383536" transform="translate(268,209)"/>
<path d="M0 0 C1.74216797 0.04060547 1.74216797 0.04060547 3.51953125 0.08203125 C4.39996094 0.11683594 5.28039062 0.15164062 6.1875 0.1875 C6.1875 1.1775 6.1875 2.1675 6.1875 3.1875 C5.1975 3.6825 5.1975 3.6825 4.1875 4.1875 C5.1775 6.8275 6.1675 9.4675 7.1875 12.1875 C5.2075 13.1775 5.2075 13.1775 3.1875 14.1875 C3.1875 14.8475 3.1875 15.5075 3.1875 16.1875 C1.8675 16.1875 0.5475 16.1875 -0.8125 16.1875 C-1.1425 15.5275 -1.4725 14.8675 -1.8125 14.1875 C-4.1265622 13.45674352 -6.46078869 12.78611742 -8.8125 12.1875 C-8.4825 9.8775 -8.1525 7.5675 -7.8125 5.1875 C-8.1425 5.8475 -8.4725 6.5075 -8.8125 7.1875 C-9.8025 6.8575 -10.7925 6.5275 -11.8125 6.1875 C-11.8125 5.1975 -11.8125 4.2075 -11.8125 3.1875 C-7.94521227 0.0630811 -4.86675949 -0.14747756 0 0 Z " fill="#201D1E" transform="translate(213.8125,210.8125)"/>
<path d="M0 0 C1.00289062 0.10183594 2.00578125 0.20367187 3.0390625 0.30859375 C3.80992187 0.39238281 4.58078125 0.47617188 5.375 0.5625 C5.045 1.5525 4.715 2.5425 4.375 3.5625 C3.055 3.8925 1.735 4.2225 0.375 4.5625 C0.045 11.1625 -0.285 17.7625 -0.625 24.5625 C-2.935 24.5625 -5.245 24.5625 -7.625 24.5625 C-7.625 16.6425 -7.625 8.7225 -7.625 0.5625 C-4.89657939 -0.80171031 -3.01546682 -0.31557211 0 0 Z " fill="#252223" transform="translate(235.625,210.4375)"/>
<path d="M0 0 C0.99 0.33 1.98 0.66 3 1 C3.33 1.99 3.66 2.98 4 4 C4.99 4.33 5.98 4.66 7 5 C7.08150744 7.06183633 7.1394194 9.12461349 7.1875 11.1875 C7.22230469 12.33605469 7.25710938 13.48460937 7.29296875 14.66796875 C6.97250672 18.31269023 6.23486176 20.13263019 4 23 C1.3125 23.8125 1.3125 23.8125 -1 24 C-1 23.34 -1 22.68 -1 22 C-1.66 21.67 -2.32 21.34 -3 21 C-3 19.35 -3 17.7 -3 16 C-2.34 16 -1.68 16 -1 16 C-1 15.01 -1 14.02 -1 13 C-1.66 12.67 -2.32 12.34 -3 12 C-2.34 12 -1.68 12 -1 12 C-1.01160156 11.30132812 -1.02320313 10.60265625 -1.03515625 9.8828125 C-1.04417969 8.97273437 -1.05320312 8.06265625 -1.0625 7.125 C-1.07410156 6.22007812 -1.08570313 5.31515625 -1.09765625 4.3828125 C-1 2 -1 2 0 0 Z " fill="#343133" transform="translate(397,211)"/>
<path d="M0 0 C2.63380355 3.95070533 2.80016718 7.54407513 3.4375 12.1875 C3.85268609 15.19150809 3.85268609 15.19150809 6 18 C6.99 17.01 7.98 16.02 9 15 C9.99 15.66 10.98 16.32 12 17 C11.34 19.31 10.68 21.62 10 24 C4.72 25.2 4.72 25.2 1.75 24.375 C-0.65622233 22.48439674 -1.19787205 20.94113581 -2 18 C-2.04165763 16.00043389 -2.04165763 13.99956611 -2 12 C-2.32550502 10.33178677 -2.65846063 8.66500443 -3 7 C-3.0370279 5.3337447 -3.04759962 3.66598681 -3 2 C-2.01 2 -1.02 2 0 2 C0 1.34 0 0.68 0 0 Z " fill="#838159" transform="translate(152,235)"/>
<path d="M0 0 C2.97 0 5.94 0 9 0 C8.94014621 2.29240007 8.85140973 4.58406206 8.75 6.875 C8.68039062 8.78925781 8.68039062 8.78925781 8.609375 10.7421875 C8.40828125 11.81726563 8.2071875 12.89234375 8 14 C6 15.3125 6 15.3125 4 16 C3.19471111 18.05000871 3.19471111 18.05000871 3 20 C2.34 20 1.68 20 1 20 C1 24.95 1 29.9 1 35 C0.67 35 0.34 35 0 35 C0 23.45 0 11.9 0 0 Z " fill="#413F40" transform="translate(435,199)"/>
<path d="M0 0 C3 2 3 2 3.67578125 3.875 C5.14026152 13.47352132 3.4979452 24.00528376 0 33 C-0.33 33 -0.66 33 -1 33 C-1 31.02 -1 29.04 -1 27 C-2.32 27 -3.64 27 -5 27 C-4.69255859 25.44152344 -4.69255859 25.44152344 -4.37890625 23.8515625 C-3.01368246 16.81871928 -1.71291921 9.88187156 -1.2109375 2.72265625 C-1 1 -1 1 0 0 Z " fill="#8C895C" transform="translate(170,181)"/>
<path d="M0 0 C2.95839355 -0.02689449 5.91654427 -0.04678741 8.875 -0.0625 C9.71675781 -0.07087891 10.55851562 -0.07925781 11.42578125 -0.08789062 C12.23144531 -0.09111328 13.03710938 -0.09433594 13.8671875 -0.09765625 C14.98262939 -0.10551147 14.98262939 -0.10551147 16.12060547 -0.11352539 C18 0 18 0 20 1 C20.042721 2.66611905 20.04063832 4.33382885 20 6 C19 7 19 7 16.95874023 7.11352539 C16.08419189 7.10828857 15.20964355 7.10305176 14.30859375 7.09765625 C13.36435547 7.09443359 12.42011719 7.09121094 11.44726562 7.08789062 C10.45404297 7.07951172 9.46082031 7.07113281 8.4375 7.0625 C7.44041016 7.05798828 6.44332031 7.05347656 5.41601562 7.04882812 C2.94395151 7.03700007 0.47200482 7.02051849 -2 7 C-2.33 6.01 -2.66 5.02 -3 4 C-2.67 3.34 -2.34 2.68 -2 2 C-1.34 2 -0.68 2 0 2 C0 1.34 0 0.68 0 0 Z " fill="#222020" transform="translate(414,228)"/>
<path d="M0 0 C5.94 0 11.88 0 18 0 C18.33 2.31 18.66 4.62 19 7 C13.72 7 8.44 7 3 7 C2.67 7.66 2.34 8.32 2 9 C2 8.34 2 7.68 2 7 C1.01 6.67 0.02 6.34 -1 6 C-0.67 4.02 -0.34 2.04 0 0 Z " fill="#262324" transform="translate(413,210)"/>
<path d="M0 0 C2.0625 0.4375 2.0625 0.4375 4 1 C4.6875 2.75 4.6875 2.75 5 5 C4.2884375 5.86625 4.2884375 5.86625 3.5625 6.75 C1.16873276 10.19702482 1.73621281 12.84535182 2 17 C2.33 17.99 2.66 18.98 3 20 C2.34 20.66 1.68 21.32 1 22 C-0.32 22 -1.64 22 -3 22 C-5.3524487 17.44213063 -5.72802388 13.0190823 -5 8 C-3.78459823 5.04123913 -2.28800339 2.28800339 0 0 Z " fill="#6F6C3E" transform="translate(123,182)"/>
<path d="M0 0 C9.9 0 19.8 0 30 0 C27.60236815 2.39763185 26.66726502 2.34280586 23.375 2.625 C22.14910156 2.73714844 22.14910156 2.73714844 20.8984375 2.8515625 C20.27195313 2.90054688 19.64546875 2.94953125 19 3 C18.87625 3.5775 18.7525 4.155 18.625 4.75 C18 7 18 7 16.9765625 8.796875 C15.58979978 11.9254117 15.56404597 14.84717248 15.375 18.25 C15.30023438 19.51328125 15.22546875 20.7765625 15.1484375 22.078125 C15.09945312 23.04234375 15.05046875 24.0065625 15 25 C14.67 25 14.34 25 14 25 C14 19.39 14 13.78 14 8 C11.36 8 8.72 8 6 8 C6.33 7.01 6.66 6.02 7 5 C8.32 5 9.64 5 11 5 C11 4.34 11 3.68 11 3 C7.04 2.67 3.08 2.34 -1 2 C-0.67 1.34 -0.34 0.68 0 0 Z " fill="#363435" transform="translate(229,209)"/>
<path d="M0 0 C-1.00678781 3.38646809 -1.4522529 4.70004326 -4.625 6.4375 C-5.40875 6.953125 -6.1925 7.46875 -7 8 C-7.33361919 11.08391002 -7.33361919 11.08391002 -7 14 C-8 15 -8 15 -11.75 15.1875 C-15.23584286 15.15615249 -17.84479083 14.57760458 -21 13 C-20.34 12.01 -19.68 11.02 -19 10 C-18.01 10.99 -17.02 11.98 -16 13 C-16.33 12.01 -16.66 11.02 -17 10 C-15.49736177 6.99472353 -13.08347159 7.02782386 -10 6 C-9.67 5.34 -9.34 4.68 -9 4 C-8.34 4 -7.68 4 -7 4 C-7 3.34 -7 2.68 -7 2 C-2.25 0 -2.25 0 0 0 Z " fill="#333132" transform="translate(322,220)"/>
<path d="M0 0 C1.32 0.33 2.64 0.66 4 1 C4.85305168 3.90669462 5.07289715 6.31048873 4.87890625 9.328125 C4.83056641 10.12734375 4.78222656 10.9265625 4.73242188 11.75 C4.67634766 12.575 4.62027344 13.4 4.5625 14.25 C4.51029297 15.09046875 4.45808594 15.9309375 4.40429688 16.796875 C4.27504311 18.8649352 4.13825726 20.9325222 4 23 C2.33388095 23.042721 0.66617115 23.04063832 -1 23 C-2 22 -2 22 -2.09765625 19.49609375 C-2.08605469 18.48675781 -2.07445312 17.47742188 -2.0625 16.4375 C-2.05347656 15.42558594 -2.04445313 14.41367188 -2.03515625 13.37109375 C-2.02355469 12.58863281 -2.01195312 11.80617187 -2 11 C-1.01 10.67 -0.02 10.34 1 10 C1 8.02 1 6.04 1 4 C0.34 4 -0.32 4 -1 4 C-0.67 2.68 -0.34 1.36 0 0 Z " fill="#232021" transform="translate(354,212)"/>
<path d="M0 0 C0.19696449 3.10364229 0.38093262 6.20792192 0.5625 9.3125 C0.61857422 10.19357422 0.67464844 11.07464844 0.73242188 11.98242188 C0.78076172 12.82998047 0.82910156 13.67753906 0.87890625 14.55078125 C0.94960327 15.72120972 0.94960327 15.72120972 1.02172852 16.9152832 C1 19 1 19 0 22 C-0.66 22.33 -1.32 22.66 -2 23 C-2.66 23.99 -3.32 24.98 -4 26 C-4.90857349 21.28723671 -5.24586439 16.66387951 -5.3125 11.875 C-5.34150391 11.17246094 -5.37050781 10.46992188 -5.40039062 9.74609375 C-5.44431778 6.17109952 -5.28248771 4.35973484 -3.04296875 1.5078125 C-1 0 -1 0 0 0 Z " fill="#656234" transform="translate(121,221)"/>
<path d="M0 0 C1.32 0.66 2.64 1.32 4 2 C4.05826088 6.3749437 4.09368457 10.74978698 4.125 15.125 C4.14175781 16.3625 4.15851563 17.6 4.17578125 18.875 C4.18222656 20.07382813 4.18867188 21.27265625 4.1953125 22.5078125 C4.20578613 23.60754395 4.21625977 24.70727539 4.22705078 25.84033203 C3.90824081 30.27693273 3.19243955 33.80756045 0 37 C-0.33 35.35 -0.66 33.7 -1 32 C-0.34 32 0.32 32 1 32 C0.67 31.34 0.34 30.68 0 30 C-0.08573394 27.74879258 -0.10712188 25.49500697 -0.09765625 23.2421875 C-0.0962413 22.57913605 -0.09482635 21.91608459 -0.09336853 21.23294067 C-0.08776754 19.11358137 -0.075215 16.99432741 -0.0625 14.875 C-0.05748512 13.43880361 -0.05292219 12.00260556 -0.04882812 10.56640625 C-0.03779782 7.04423655 -0.02053259 3.52212855 0 0 Z " fill="#69663A" transform="translate(163,213)"/>
<path d="M0 0 C2.7330836 2.36039038 4.00684499 4.52395748 5 8 C4.68564441 11.37932259 4.42520546 12.57479454 2 15 C1.59952556 17.32275177 1.2602896 19.65739357 1 22 C1.66 22.33 2.32 22.66 3 23 C2.979375 23.9075 2.95875 24.815 2.9375 25.75 C2.9889755 28.42672588 3.2215017 30.46988052 4 33 C1.16123762 30.62450286 0.53118684 28.92465938 0.05078125 25.2890625 C-0.07490234 24.37382812 -0.20058594 23.45859375 -0.33007812 22.515625 C-0.44802734 21.56171875 -0.56597656 20.6078125 -0.6875 19.625 C-0.88182617 18.20574219 -0.88182617 18.20574219 -1.08007812 16.7578125 C-1.64961485 12.4666998 -2.06816615 8.33459357 -2 4 C-1.34 4 -0.68 4 0 4 C0 2.68 0 1.36 0 0 Z " fill="#7A7545" transform="translate(148,224)"/>
<path d="M0 0 C3.47911745 1.24529296 5.431036 3.06896799 7.375 6.25 C7.58125 6.8275 7.7875 7.405 8 8 C7.34 8 6.68 8 6 8 C5.67 9.98 5.34 11.96 5 14 C4.4225 13.236875 3.845 12.47375 3.25 11.6875 C1.28296907 9.33799083 -0.48476744 7.70676495 -3 6 C-2.34 4.68 -1.68 3.36 -1 2 C-5.95 2 -10.9 2 -16 2 C-11.11921805 -1.25385463 -5.70558975 -0.57476457 0 0 Z " fill="#878567" transform="translate(164,174)"/>
<path d="M0 0 C1.21236328 0.01353516 1.21236328 0.01353516 2.44921875 0.02734375 C3.37154297 0.04474609 3.37154297 0.04474609 4.3125 0.0625 C4.6425 1.0525 4.9725 2.0425 5.3125 3.0625 C4.6525 3.0625 3.9925 3.0625 3.3125 3.0625 C3.3125 4.3825 3.3125 5.7025 3.3125 7.0625 C1.35483719 7.14332094 -0.60376728 7.20160778 -2.5625 7.25 C-4.19832031 7.30220703 -4.19832031 7.30220703 -5.8671875 7.35546875 C-6.79789062 7.25878906 -7.72859375 7.16210938 -8.6875 7.0625 C-9.3475 6.0725 -10.0075 5.0825 -10.6875 4.0625 C-7.4284026 0.49301238 -4.73606476 -0.06863862 0 0 Z " fill="#3E3C3D" transform="translate(369.6875,208.9375)"/>
<path d="M0 0 C5.61 0 11.22 0 17 0 C17 1.32 17 2.64 17 4 C16.01 3.67 15.02 3.34 14 3 C13.39865234 3.73863281 13.39865234 3.73863281 12.78515625 4.4921875 C10.50037668 6.42200132 9.37700688 6.28965113 6.4375 6.125 C3.08842438 5.89514189 3.08842438 5.89514189 0 7 C0 4.69 0 2.38 0 0 Z " fill="#434041" transform="translate(199,227)"/>
<path d="M0 0 C0.33 0 0.66 0 1 0 C1.33 10.56 1.66 21.12 2 32 C1.34 32 0.68 32 0 32 C0.66 32.99 1.32 33.98 2 35 C2.66 33.02 3.32 31.04 4 29 C4.66 29 5.32 29 6 29 C5.63495936 34.66442374 4.9445679 39.00703705 2 44 C1.67 44 1.34 44 1 44 C1 42.35 1 40.7 1 39 C0.505 39.495 0.505 39.495 0 40 C-2.30457761 36.54313358 -1.93718799 35.53214235 -1.32861328 31.6171875 C-0.59632041 25.78495899 -0.61286571 19.87043903 -0.4375 14 C-0.39421865 12.63931211 -0.35060161 11.27863485 -0.30664062 9.91796875 C-0.20113317 6.61206843 -0.09901744 3.30610001 0 0 Z " fill="#A5A387" transform="translate(162,213)"/>
<path d="M0 0 C2.40450178 2.40450178 2.29609139 3.08233942 2.3125 6.375 C2.24868341 9.42346918 2.09095213 10.83049831 0.625 13.5625 C-1 15 -1 15 -3 15 C-3 19.95 -3 24.9 -3 30 C-3.33 30 -3.66 30 -4 30 C-4.02897435 25.72918086 -4.04678996 21.45838691 -4.0625 17.1875 C-4.07087891 15.97255859 -4.07925781 14.75761719 -4.08789062 13.50585938 C-4.09111328 12.34248047 -4.09433594 11.17910156 -4.09765625 9.98046875 C-4.10289307 8.90692139 -4.10812988 7.83337402 -4.11352539 6.72729492 C-4 4 -4 4 -3 1 C-2.01 0.67 -1.02 0.34 0 0 Z " fill="#8C8868" transform="translate(119,210)"/>
<path d="M0 0 C0.99 0 1.98 0 3 0 C2.125 4.75 2.125 4.75 1 7 C0.77532169 8.53668865 0.59203195 10.07968054 0.4375 11.625 C0.35371094 12.44226563 0.26992187 13.25953125 0.18359375 14.1015625 C0.12300781 14.72804687 0.06242187 15.35453125 0 16 C-1.98 15.34 -3.96 14.68 -6 14 C-5.67 10.37 -5.34 6.74 -5 3 C-3.68 3 -2.36 3 -1 3 C-0.67 2.01 -0.34 1.02 0 0 Z " fill="#7B7750" transform="translate(115,180)"/>
<path d="M0 0 C2.39142922 3.58714384 2.21171941 5.19306669 2.125 9.4375 C2.10695312 10.57058594 2.08890625 11.70367187 2.0703125 12.87109375 C2.04710937 13.90363281 2.02390625 14.93617188 2 16 C2 17.32 2 18.64 2 20 C1.67 20.99 1.34 21.98 1 23 C-1.20177383 19.69733925 -1.48605179 17.89132217 -2 14 C-2.0928125 13.33097656 -2.185625 12.66195312 -2.28125 11.97265625 C-2.73259802 8.60635229 -3 5.40243263 -3 2 C-2.01 2 -1.02 2 0 2 C0 1.34 0 0.68 0 0 Z " fill="#6C693F" transform="translate(152,235)"/>
<path d="M0 0 C0 0.66 0 1.32 0 2 C-0.78246094 2.06058594 -1.56492188 2.12117187 -2.37109375 2.18359375 C-3.88896484 2.30927734 -3.88896484 2.30927734 -5.4375 2.4375 C-6.44683594 2.51871094 -7.45617187 2.59992188 -8.49609375 2.68359375 C-10.93640779 2.73211468 -10.93640779 2.73211468 -12 4 C-11.34 4.33 -10.68 4.66 -10 5 C-9.67 4.34 -9.34 3.68 -9 3 C-7.68 3.33 -6.36 3.66 -5 4 C-5 4.66 -5 5.32 -5 6 C-7.97 6.66 -10.94 7.32 -14 8 C-14 7.34 -14 6.68 -14 6 C-17.11785113 6.64644661 -17.11785113 6.64644661 -18 9 C-18.99 9 -19.98 9 -21 9 C-20.09677683 5.38710732 -19.06263701 4.05038194 -16.125 1.6875 C-11.09194323 -0.97328798 -5.52642403 -0.32668516 0 0 Z " fill="#969580" transform="translate(132,174)"/>
<path d="M0 0 C3.96 0 7.92 0 12 0 C11.34 0.66 10.68 1.32 10 2 C8.68 2 7.36 2 6 2 C6 3.65 6 5.3 6 7 C5.01 7 4.02 7 3 7 C3.99 7.66 4.98 8.32 6 9 C-0.4 9.49230769 -0.4 9.49230769 -3.4375 7 C-3.953125 6.34 -4.46875 5.68 -5 5 C-4.67 4.01 -4.34 3.02 -4 2 C-2.68 2 -1.36 2 0 2 C0 1.34 0 0.68 0 0 Z " fill="#494849" transform="translate(300,226)"/>
<path d="M0 0 C0.74056641 0.00902344 1.48113281 0.01804688 2.24414062 0.02734375 C4.05873467 0.05075787 5.87316071 0.08662385 7.6875 0.125 C7.3575 1.445 7.0275 2.765 6.6875 4.125 C2.0675 4.455 -2.5525 4.785 -7.3125 5.125 C-7.3125 4.465 -7.3125 3.805 -7.3125 3.125 C-9.2925 3.785 -11.2725 4.445 -13.3125 5.125 C-13.3125 4.135 -13.3125 3.145 -13.3125 2.125 C-8.90220217 -0.08449832 -4.82309676 -0.1120648 0 0 Z " fill="#807E5D" transform="translate(155.3125,175.875)"/>
<path d="M0 0 C0.33 0 0.66 0 1 0 C1.07347656 1.77117187 1.07347656 1.77117187 1.1484375 3.578125 C1.22348879 5.13543937 1.29903561 6.69272991 1.375 8.25 C1.4059375 9.02730469 1.436875 9.80460938 1.46875 10.60546875 C1.72658242 16.07379907 1.72658242 16.07379907 4 21 C3.34 21.99 2.68 22.98 2 24 C1.54860541 26.0492094 1.54860541 26.0492094 1.375 28.1875 C1.25125 29.445625 1.1275 30.70375 1 32 C-1.4294516 28.3558226 -1.16179575 26.28758728 -1 22 C-1.66 22 -2.32 22 -3 22 C-2.505 20.515 -2.505 20.515 -2 19 C-1.34 19 -0.68 19 0 19 C-0.33 18.34 -0.66 17.68 -1 17 C-1.09792892 14.4884113 -1.13907983 12.01090234 -1.125 9.5 C-1.12886719 8.81035156 -1.13273437 8.12070313 -1.13671875 7.41015625 C-1.12666646 2.25333293 -1.12666646 2.25333293 0 0 Z " fill="#211F20" transform="translate(444,201)"/>
<path d="M0 0 C-0.185625 0.721875 -0.37125 1.44375 -0.5625 2.1875 C-1.22366086 5.37456241 -1.22366086 5.37456241 0 10 C-4.29 10 -8.58 10 -13 10 C-13.33 8.68 -13.66 7.36 -14 6 C-11.36 5.67 -8.72 5.34 -6 5 C-6 4.34 -6 3.68 -6 3 C-2.53846154 0 -2.53846154 0 0 0 Z " fill="#1B191A" transform="translate(396,225)"/>
<path d="M0 0 C0.33 0 0.66 0 1 0 C1 1.98 1 3.96 1 6 C4.12197478 4.6910428 4.12197478 4.6910428 6 2 C7.32 2.33 8.64 2.66 10 3 C10 3.66 10 4.32 10 5 C13.465 4.505 13.465 4.505 17 4 C16.01 4.495 16.01 4.495 15 5 C15 5.66 15 6.32 15 7 C14.21625 7.309375 13.4325 7.61875 12.625 7.9375 C10.07669872 8.92875038 10.07669872 8.92875038 8 10 C8 10.66 8 11.32 8 12 C2.25 10.375 2.25 10.375 0 7 C-0.07905064 4.66800612 -0.08798769 2.33167378 0 0 Z " fill="#393637" transform="translate(375,223)"/>
<path d="M0 0 C0.66 0 1.32 0 2 0 C2 3.3 2 6.6 2 10 C7.61 10 13.22 10 19 10 C19 10.33 19 10.66 19 11 C13.06 11 7.12 11 1 11 C1 11.66 1 12.32 1 13 C0.34 13 -0.32 13 -1 13 C-1 14.32 -1 15.64 -1 17 C-2.32 16.34 -3.64 15.68 -5 15 C-5 14.01 -5 13.02 -5 12 C-4.34 12 -3.68 12 -3 12 C-2.85691406 11.42765625 -2.71382813 10.8553125 -2.56640625 10.265625 C-1.7109375 6.84375 -0.85546875 3.421875 0 0 Z " fill="#514E4F" transform="translate(413,217)"/>
<path d="M0 0 C0.33 0 0.66 0 1 0 C1 2.31 1 4.62 1 7 C3.97 7 6.94 7 10 7 C10 9.64 10 12.28 10 15 C7.03 15 4.06 15 1 15 C1 20.61 1 26.22 1 32 C0.67 32 0.34 32 0 32 C0 26.06 0 20.12 0 14 C1.98 13.67 3.96 13.34 6 13 C6 12.01 6 11.02 6 10 C3.69 9.67 1.38 9.34 -1 9 C-0.67 6.03 -0.34 3.06 0 0 Z " fill="#5D5B5C" transform="translate(339,202)"/>
<path d="M0 0 C1.45823212 -0.0270043 2.91660675 -0.04639787 4.375 -0.0625 C5.18710938 -0.07410156 5.99921875 -0.08570313 6.8359375 -0.09765625 C9 0 9 0 11 1 C11 2.65 11 4.3 11 6 C10.34 6 9.68 6 9 6 C8.67 6.66 8.34 7.32 8 8 C7.67 7.01 7.34 6.02 7 5 C5.35 5 3.7 5 2 5 C1.67 5.66 1.34 6.32 1 7 C-0.32 7 -1.64 7 -3 7 C-3 6.34 -3 5.68 -3 5 C-2.34 5 -1.68 5 -1 5 C-0.67 3.35 -0.34 1.7 0 0 Z " fill="#737148" transform="translate(137,222)"/>
<path d="M0 0 C0.33 0.66 0.66 1.32 1 2 C2.65 2 4.3 2 6 2 C6.04241723 4.33294775 6.04092937 6.66702567 6 9 C5 10 5 10 2.75 10.4375 C-1.44858555 9.76954321 -2.54333585 7.3691394 -5 4 C-3.74458443 1.48916886 -2.49936512 1.12874554 0 0 Z " fill="#201D1E" transform="translate(287,225)"/>
<path d="M0 0 C0.59732819 2.76264289 1 5.16032769 1 8 C1.66 8.33 2.32 8.66 3 9 C2.01 9.99 1.02 10.98 0 12 C-2.5 10.625 -2.5 10.625 -5 9 C-5 8.34 -5 7.68 -5 7 C-4.01 7 -3.02 7 -2 7 C-2.33 6.34 -2.66 5.68 -3 5 C-5.64 5 -8.28 5 -11 5 C-11 3.68 -11 2.36 -11 1 C-9.54182203 0.83197949 -8.0834516 0.66562857 -6.625 0.5 C-5.81289062 0.4071875 -5.00078125 0.314375 -4.1640625 0.21875 C-2 0 -2 0 0 0 Z " fill="#211E1F" transform="translate(259,210)"/>
<path d="M0 0 C0.33 0 0.66 0 1 0 C1.04898438 0.59167969 1.09796875 1.18335938 1.1484375 1.79296875 C1.48703914 5.37163781 1.78214497 8.45536242 3.125 11.8125 C4.14028271 14.35070677 3.9339346 15.47837658 3 18 C1.68 18 0.36 18 -1 18 C-1 17.34 -1 16.68 -1 16 C-1.66 16 -2.32 16 -3 16 C-3.33 15.01 -3.66 14.02 -4 13 C-3.34 13 -2.68 13 -2 13 C-1.34 8.71 -0.68 4.42 0 0 Z " fill="#787450" transform="translate(129,240)"/>
<path d="M0 0 C0.99 0.66 1.98 1.32 3 2 C3.2208564 4.95064148 3.28060989 7.68368231 3.1875 10.625 C3.17396484 11.42679688 3.16042969 12.22859375 3.14648438 13.0546875 C3.11109051 15.03674378 3.05728234 17.01845551 3 19 C0.69 19 -1.62 19 -4 19 C-4 17.68 -4 16.36 -4 15 C-3.35675781 14.76023438 -2.71351563 14.52046875 -2.05078125 14.2734375 C0.1785714 13.19664408 0.1785714 13.19664408 0.64453125 10.9765625 C0.69996094 10.20054687 0.75539063 9.42453125 0.8125 8.625 C0.88082031 7.85414063 0.94914062 7.08328125 1.01953125 6.2890625 C1.00015809 4.01852779 0.64837076 2.16783507 0 0 Z " fill="#282727" transform="translate(336,216)"/>
<path d="M0 0 C0.33 0 0.66 0 1 0 C1.33 2.97 1.66 5.94 2 9 C1.01 9.33 0.02 9.66 -1 10 C-1 11.98 -1 13.96 -1 16 C-3 15 -3 15 -4.125 11.875 C-4.97755199 8.09941262 -5.15729024 4.85361088 -5 1 C-4.01 2.485 -4.01 2.485 -3 4 C-2.01 3.67 -1.02 3.34 0 3 C0 2.01 0 1.02 0 0 Z " fill="#7F7D59" transform="translate(121,240)"/>
<path d="M0 0 C2.64 0 5.28 0 8 0 C8 2.31 8 4.62 8 7 C5.36 7 2.72 7 0 7 C0 4.69 0 2.38 0 0 Z " fill="#353334" transform="translate(268,199)"/>
<path d="M0 0 C3 2 3 2 3.68359375 3.828125 C4.02479789 6.17021759 4.09729516 8.38392907 4.0625 10.75 C4.05347656 11.54921875 4.04445312 12.3484375 4.03515625 13.171875 C4.01775391 14.07679688 4.01775391 14.07679688 4 15 C3.34 14.67 2.68 14.34 2 14 C2 13.01 2 12.02 2 11 C1.01 11.33 0.02 11.66 -1 12 C-1.02687279 10.18757948 -1.04633715 8.37504767 -1.0625 6.5625 C-1.07410156 5.55316406 -1.08570313 4.54382813 -1.09765625 3.50390625 C-1 1 -1 1 0 0 Z " fill="#6B663E" transform="translate(170,181)"/>
<path d="M0 0 C1.0625 1.875 1.0625 1.875 2 4 C1.67 4.66 1.34 5.32 1 6 C0.34 6 -0.32 6 -1 6 C-1.33 6.99 -1.66 7.98 -2 9 C-4.0625 9.6875 -4.0625 9.6875 -6 10 C-6 7.69 -6 5.38 -6 3 C-5.34 3 -4.68 3 -4 3 C-4 2.34 -4 1.68 -4 1 C-2.68 0.67 -1.36 0.34 0 0 Z " fill="#211E1F" transform="translate(382,219)"/>
<path d="M0 0 C1.50433594 0.01353516 1.50433594 0.01353516 3.0390625 0.02734375 C3.80992187 0.03894531 4.58078125 0.05054688 5.375 0.0625 C3.58453589 4.19968891 1.21402629 5.72570139 -2.625 8.0625 C-2.05155063 5.19525314 -1.7635485 4.2010485 0.375 2.0625 C-3.9427458 2.57047009 -7.65802114 3.25932779 -11.625 5.0625 C-7.56381029 0.8659373 -5.84464408 -0.06796098 0 0 Z " fill="#4B494A" transform="translate(460.625,208.9375)"/>
<path d="M0 0 C0.33 0.66 0.66 1.32 1 2 C1.66 2 2.32 2 3 2 C2.34 3.65 1.68 5.3 1 7 C2.32 7 3.64 7 5 7 C5 8.98 5 10.96 5 13 C3.68 13.33 2.36 13.66 1 14 C0.67 15.32 0.34 16.64 0 18 C0 12.06 0 6.12 0 0 Z " fill="#3B3839" transform="translate(331,217)"/>
<path d="M0 0 C4.95 0 9.9 0 15 0 C15 0.66 15 1.32 15 2 C15.66 2.33 16.32 2.66 17 3 C11.72 3 6.44 3 1 3 C0.67 2.01 0.34 1.02 0 0 Z " fill="#514D4E" transform="translate(415,214)"/>
<path d="M0 0 C1.485 0.99 1.485 0.99 3 2 C3.27060777 6.1944205 3.34152439 9.97542684 2 14 C2.66 14.33 3.32 14.66 4 15 C3.979375 15.9075 3.95875 16.815 3.9375 17.75 C3.9889755 20.42672588 4.2215017 22.46988052 5 25 C2.37657571 23.0737597 1.9822971 21.91934295 1.26953125 18.671875 C1.11871094 17.37765625 0.96789062 16.0834375 0.8125 14.75 C0.65394531 13.46609375 0.49539062 12.1821875 0.33203125 10.859375 C0.01853279 7.21541645 -0.06154836 3.65502574 0 0 Z " fill="#918C72" transform="translate(147,232)"/>
<path d="M0 0 C1 3 1 3 -0.25 6.625 C-2 10 -2 10 -5 11 C-5 7.7 -5 4.4 -5 1 C-3 0 -3 0 0 0 Z " fill="#201D1E" transform="translate(412,219)"/>
<path d="M0 0 C1.98 0.495 1.98 0.495 4 1 C5.30062431 4.81516464 4.89369853 8.27561763 4.5625 12.25 C4.46066406 13.51328125 4.35882813 14.7765625 4.25390625 16.078125 C4.17011719 17.04234375 4.08632813 18.0065625 4 19 C3.67 19 3.34 19 3 19 C2.93941406 18.25234375 2.87882812 17.5046875 2.81640625 16.734375 C2.73261719 15.74953125 2.64882813 14.7646875 2.5625 13.75 C2.44068359 12.28820312 2.44068359 12.28820312 2.31640625 10.796875 C2.04925416 8.43538247 1.64628032 6.28098935 1 4 C0.34 4 -0.32 4 -1 4 C-0.67 2.68 -0.34 1.36 0 0 Z " fill="#323031" transform="translate(354,212)"/>
<path d="M0 0 C1.32 0 2.64 0 4 0 C4.66 2.31 5.32 4.62 6 7 C4.54077307 6.88590407 3.08259402 6.75834456 1.625 6.625 C0.40683594 6.52058594 0.40683594 6.52058594 -0.8359375 6.4140625 C-3 6 -3 6 -5 4 C-4.34 3.34 -3.68 2.68 -3 2 C-2.01 2.99 -1.02 3.98 0 5 C-0.33 4.01 -0.66 3.02 -1 2 C-0.67 1.34 -0.34 0.68 0 0 Z " fill="#201E1F" transform="translate(306,228)"/>
<path d="M0 0 C0.33 0 0.66 0 1 0 C0.88556397 2.0839403 0.75804453 4.16716493 0.625 6.25 C0.55539063 7.41015625 0.48578125 8.5703125 0.4140625 9.765625 C0.03751692 12.70694334 -0.4774123 14.49949011 -2 17 C-3.72305453 13.55389094 -3.379435 9.77537825 -3 6 C-1.5 2.4375 -1.5 2.4375 0 0 Z " fill="#6A6739" transform="translate(133,234)"/>
<path d="M0 0 C3.875 1.875 3.875 1.875 5 3 C5.14115161 5.67058851 5.04247107 8.32432238 5 11 C2.5625 10.1875 2.5625 10.1875 0 9 C-1.0635774 5.80926781 -0.89019883 5.06624043 0 2 C0 1.34 0 0.68 0 0 Z " fill="#3E3D3D" transform="translate(259,210)"/>
<path d="M0 0 C0 5.94 0 11.88 0 18 C-0.66 17.67 -1.32 17.34 -2 17 C-2 13.04 -2 9.08 -2 5 C-2.99 5.33 -3.98 5.66 -5 6 C-5 4 -5 4 -3.0625 1.875 C-1 0 -1 0 0 0 Z " fill="#6D6942" transform="translate(121,221)"/>
<path d="M0 0 C-1.62339805 1.70884005 -3.29319053 3.37446717 -5 5 C-5.66 5 -6.32 5 -7 5 C-7 4.34 -7 3.68 -7 3 C-8.98 3.66 -10.96 4.32 -13 5 C-13 4.01 -13 3.02 -13 2 C-8.50343896 -0.24828052 -4.92127034 -0.16682272 0 0 Z " fill="#676437" transform="translate(155,176)"/>
<path d="M0 0 C0.99 0.33 1.98 0.66 3 1 C3 3.31 3 5.62 3 8 C1.02 8 -0.96 8 -3 8 C-1.125 1.125 -1.125 1.125 0 0 Z " fill="#211F20" transform="translate(272,227)"/>
<path d="M0 0 C0.66 0 1.32 0 2 0 C3.04449911 3.13349732 2.93423645 3.98968256 2 7 C4.97 7.495 4.97 7.495 8 8 C8 8.33 8 8.66 8 9 C0.60045489 9.36391205 0.60045489 9.36391205 -2.0625 7.75 C-3 6 -3 6 -2.8125 3.9375 C-2 2 -2 2 0 0 Z " fill="#373535" transform="translate(204,216)"/>
<path d="M0 0 C0.66 0 1.32 0 2 0 C3.80230168 3.82989106 4.19622241 6.78121808 4 11 C3.67 10.34 3.34 9.68 3 9 C2.34 9 1.68 9 1 9 C1.33 9.99 1.66 10.98 2 12 C1.34 12 0.68 12 0 12 C-0.19477739 10.37585622 -0.38059458 8.75063577 -0.5625 7.125 C-0.66691406 6.22007812 -0.77132812 5.31515625 -0.87890625 4.3828125 C-1 2 -1 2 0 0 Z " fill="#6D6B45" transform="translate(115,202)"/>
<path d="M0 0 C0.98613281 0.03480469 1.97226563 0.06960937 2.98828125 0.10546875 C3.98214844 0.13253906 4.97601563 0.15960938 6 0.1875 C7.13888672 0.23970703 7.13888672 0.23970703 8.30078125 0.29296875 C8.30078125 1.61296875 8.30078125 2.93296875 8.30078125 4.29296875 C6.65078125 4.29296875 5.00078125 4.29296875 3.30078125 4.29296875 C3.30078125 3.63296875 3.30078125 2.97296875 3.30078125 2.29296875 C-1.15421875 2.78796875 -1.15421875 2.78796875 -5.69921875 3.29296875 C-2.69921875 0.29296875 -2.69921875 0.29296875 0 0 Z " fill="#676437" transform="translate(123.69921875,175.70703125)"/>
<path d="M0 0 C1.65 0.33 3.3 0.66 5 1 C5 1.66 5 2.32 5 3 C2.03 3.66 -0.94 4.32 -4 5 C-4 4.34 -4 3.68 -4 3 C-7.11785113 3.64644661 -7.11785113 3.64644661 -8 6 C-8.99 6 -9.98 6 -11 6 C-10.67 5.01 -10.34 4.02 -10 3 C-6.78548731 1.39274365 -3.56387464 1.94251815 0 2 C0 1.34 0 0.68 0 0 Z " fill="#837F60" transform="translate(122,177)"/>
<path d="M0 0 C0.66 0 1.32 0 2 0 C4.09350689 3.4019487 4.17942163 6.05272412 4 10 C2.68 9.67 1.36 9.34 0 9 C0 6.03 0 3.06 0 0 Z " fill="#64623E" transform="translate(169,194)"/>
<path d="M0 0 C2.0625 0.4375 2.0625 0.4375 4 1 C4 3.64 4 6.28 4 9 C1.525 8.01 1.525 8.01 -1 7 C-1.04254356 5.00045254 -1.04080783 2.99958364 -1 1 C-0.67 0.67 -0.34 0.34 0 0 Z " fill="#52502B" transform="translate(110,187)"/>
<path d="M0 0 C0.33 0 0.66 0 1 0 C1.33 4.95 1.66 9.9 2 15 C1.01 15.66 0.02 16.32 -1 17 C-1.02691685 14.54159395 -1.04679802 12.08348118 -1.0625 9.625 C-1.07087891 8.92632812 -1.07925781 8.22765625 -1.08789062 7.5078125 C-1.11328125 2.2265625 -1.11328125 2.2265625 0 0 Z " fill="#0C0408" transform="translate(444,201)"/>
<path d="M0 0 C-0.9977758 2.99332739 -1.7522025 3.94766315 -4 6 C-6.46800047 4.84826645 -8.04783565 3.95216435 -10 2 C-6.3558226 -0.4294516 -4.28758728 -0.16179575 0 0 Z " fill="#211F20" transform="translate(461,211)"/>
<path d="M0 0 C1.76462683 3.08809695 2 4.23312136 2 8 C2.144375 7.401875 2.28875 6.80375 2.4375 6.1875 C2.8872439 4.43849596 3.42892341 2.71322977 4 1 C6 4 6 4 7 7 C6.34 7.66 5.68 8.32 5 9 C3.68 9 2.36 9 1 9 C-1.09230769 4.56923077 -1.09230769 4.56923077 -0.625 1.6875 C-0.41875 1.130625 -0.2125 0.57375 0 0 Z " fill="#807E60" transform="translate(119,195)"/>
<path d="M0 0 C1.65 0 3.3 0 5 0 C5 2.31 5 4.62 5 7 C3.68 7 2.36 7 1 7 C0.67 4.69 0.34 2.38 0 0 Z " fill="#504E50" transform="translate(288,227)"/>
<path d="M0 0 C0 3.96 0 7.92 0 12 C-2.3129482 9.6870518 -2.49580975 8.52095125 -3.125 5.375 C-3.29257813 4.55773437 -3.46015625 3.74046875 -3.6328125 2.8984375 C-3.75398438 2.27195313 -3.87515625 1.64546875 -4 1 C-2 0 -2 0 0 0 Z " fill="#8C8963" transform="translate(115,202)"/>
<path d="M0 0 C2 1 2 1 3.1875 3.3125 C4.0391795 6.12959374 4.23132595 7.34791333 3 10 C2.01 10.33 1.02 10.66 0 11 C0 7.37 0 3.74 0 0 Z " fill="#232121" transform="translate(453,218)"/>
<path d="M0 0 C1.65 0.33 3.3 0.66 5 1 C3.02 5.455 3.02 5.455 1 10 C0.34 9.67 -0.32 9.34 -1 9 C-0.67 6.03 -0.34 3.06 0 0 Z " fill="#353133" transform="translate(331,201)"/>
<path d="M0 0 C1.32 0.66 2.64 1.32 4 2 C3.67 3.98 3.34 5.96 3 8 C2.01 7.34 1.02 6.68 0 6 C-2.11280345 5.36707617 -2.11280345 5.36707617 -4 5 C-2.68 3.35 -1.36 1.7 0 0 Z " fill="#73714A" transform="translate(160,250)"/>
<path d="M0 0 C2.31 0 4.62 0 7 0 C6.01 0.495 6.01 0.495 5 1 C5 2.32 5 3.64 5 5 C3.35 5 1.7 5 0 5 C0 3.35 0 1.7 0 0 Z " fill="#2B2829" transform="translate(368,211)"/>
<path d="M0 0 C4.95 0 9.9 0 15 0 C12.15955198 2.84044802 9.95509169 2.73632722 6 3 C2.5625 2.0625 2.5625 2.0625 0 1 C0 0.67 0 0.34 0 0 Z " fill="#383435" transform="translate(381,209)"/>
<path d="M0 0 C2.475 0.99 2.475 0.99 5 2 C3.66666667 3.33333333 2.33333333 4.66666667 1 6 C-1.125 5.625 -1.125 5.625 -3 5 C-2.01 3.35 -1.02 1.7 0 0 Z " fill="#837F60" transform="translate(164,175)"/>
<path d="M0 0 C1.65 0 3.3 0 5 0 C5 0.99 5 1.98 5 3 C4.01 3 3.02 3 2 3 C1.67 3.66 1.34 4.32 1 5 C-0.32 5 -1.64 5 -3 5 C-3 4.34 -3 3.68 -3 3 C-2.34 3 -1.68 3 -1 3 C-0.67 2.01 -0.34 1.02 0 0 Z " fill="#666336" transform="translate(137,224)"/>
<path d="M0 0 C0.33 0 0.66 0 1 0 C2.61050328 9.01531729 2.61050328 9.01531729 0.0625 13.125 C-0.618125 13.74375 -1.29875 14.3625 -2 15 C-2.66 14.34 -3.32 13.68 -4 13 C-3.34 13 -2.68 13 -2 13 C-1.34 8.71 -0.68 4.42 0 0 Z " fill="#9F987E" transform="translate(129,240)"/>
<path d="M0 0 C0.33 0.99 0.66 1.98 1 3 C1.66 3.33 2.32 3.66 3 4 C2.67 4.66 2.34 5.32 2 6 C1.7724985 7.87056791 1.59037189 9.74685958 1.4375 11.625 C1.35371094 12.62789062 1.26992187 13.63078125 1.18359375 14.6640625 C1.12300781 15.43492187 1.06242188 16.20578125 1 17 C0.67 17 0.34 17 0 17 C-0.19493195 14.72979256 -0.38070418 12.45879711 -0.5625 10.1875 C-0.66691406 8.92292969 -0.77132812 7.65835938 -0.87890625 6.35546875 C-1 3 -1 3 0 0 Z " fill="#827F57" transform="translate(164,208)"/>
<path d="M0 0 C0.66 0 1.32 0 2 0 C3.10807948 3.32423843 2.76802174 4.67190578 2 8 C2 8.66 2 9.32 2 10 C1.34 10 0.68 10 0 10 C-0.95024979 6.30458414 -0.95024979 3.69541586 0 0 Z " fill="#636131" transform="translate(121,193)"/>
<path d="M0 0 C0.99 0 1.98 0 3 0 C3 1.98 3 3.96 3 6 C1.68 6.33 0.36 6.66 -1 7 C-1.33 8.32 -1.66 9.64 -2 11 C-1.67 8.69 -1.34 6.38 -1 4 C-0.01 4 0.98 4 2 4 C2 3.01 2 2.02 2 1 C1.34 0.67 0.68 0.34 0 0 Z " fill="#454343" transform="translate(333,224)"/>
<path d="M0 0 C1.32 0.33 2.64 0.66 4 1 C4.33 2.32 4.66 3.64 5 5 C4.01 5.495 4.01 5.495 3 6 C2.34 5.01 1.68 4.02 1 3 C0.01 3.33 -0.98 3.66 -2 4 C-1.34 2.68 -0.68 1.36 0 0 Z " fill="#85846A" transform="translate(123,182)"/>
<path d="M0 0 C2 3 2 3 1.625 6.1875 C1.41875 7.115625 1.2125 8.04375 1 9 C-0.32 9 -1.64 9 -3 9 C-3 9.66 -3 10.32 -3 11 C-3.66 10.67 -4.32 10.34 -5 10 C-4.360625 9.46375 -3.72125 8.9275 -3.0625 8.375 C-0.61470596 5.55632807 -0.33285388 3.66139268 0 0 Z " fill="#565455" transform="translate(381,211)"/>
<path d="M0 0 C2.64 0 5.28 0 8 0 C7.01 0.495 7.01 0.495 6 1 C5.67 1.99 5.34 2.98 5 4 C2.03 3.505 2.03 3.505 -1 3 C-0.67 2.01 -0.34 1.02 0 0 Z " fill="#221F20" transform="translate(339,211)"/>
<path d="M0 0 C0.66 0.33 1.32 0.66 2 1 C1.49287967 4.71888239 0.88391785 7.73454239 -1 11 C-2.26264601 6.70700357 -1.62950412 4.12168689 0 0 Z " fill="#72704C" transform="translate(124,184)"/>
<path d="M0 0 C0.99 0 1.98 0 3 0 C2.25 4.75 2.25 4.75 0 7 C-1 6 -1 6 -1.125 3.5 C-1 1 -1 1 0 0 Z " fill="#6E6A45" transform="translate(115,180)"/>
<path d="M0 0 C1.32 0.66 2.64 1.32 4 2 C1.69631264 3.06652192 -0.64018187 4.06421005 -3 5 C-3.66 4.67 -4.32 4.34 -5 4 C-3.35 2.68 -1.7 1.36 0 0 Z " fill="#928E74" transform="translate(117,175)"/>
<path d="M0 0 C2.97 1.98 2.97 1.98 6 4 C3.39417629 4.93065133 2.35801776 5.14917407 -0.25 4.0625 C-0.8275 3.711875 -1.405 3.36125 -2 3 C-2 2.34 -2 1.68 -2 1 C-1.34 0.67 -0.68 0.34 0 0 Z " fill="#767152" transform="translate(122,255)"/>
<path d="M0 0 C0.66 1.32 1.32 2.64 2 4 C1.34 4 0.68 4 0 4 C0.33 5.32 0.66 6.64 1 8 C0.01 8.33 -0.98 8.66 -2 9 C-1.125 1.125 -1.125 1.125 0 0 Z " fill="#929075" transform="translate(162,241)"/>
<path d="M0 0 C1.65 1.65 3.3 3.3 5 5 C4 6 4 6 1.4375 6.0625 C0.2309375 6.0315625 0.2309375 6.0315625 -1 6 C-1 5.34 -1 4.68 -1 4 C-0.34 4 0.32 4 1 4 C0.67 2.68 0.34 1.36 0 0 Z " fill="#494747" transform="translate(461,229)"/>
<path d="M0 0 C3.71599191 -0.20086443 4.77208445 -0.1519437 8 2 C7.01 2.99 6.02 3.98 5 5 C2.5 3.625 2.5 3.625 0 2 C0 1.34 0 0.68 0 0 Z " fill="#171415" transform="translate(254,217)"/>
<path d="M0 0 C1.65 0 3.3 0 5 0 C5.33 0.99 5.66 1.98 6 3 C3.69 3 1.38 3 -1 3 C-0.67 2.01 -0.34 1.02 0 0 Z " fill="#4B494A" transform="translate(236,214)"/>
<path d="M0 0 C1.98 0 3.96 0 6 0 C4.35830472 2.02054804 2.69088222 4.02043058 1 6 C0.67 6 0.34 6 0 6 C0 4.02 0 2.04 0 0 Z " fill="#535252" transform="translate(323,209)"/>
<path d="M0 0 C0.33 0 0.66 0 1 0 C1 1.98 1 3.96 1 6 C-0.32 6 -1.64 6 -3 6 C-3 4.68 -3 3.36 -3 2 C-2.01 2 -1.02 2 0 2 C0 1.34 0 0.68 0 0 Z " fill="#515050" transform="translate(314,228)"/>
<path d="M0 0 C1.485 0.99 1.485 0.99 3 2 C2.67 4.64 2.34 7.28 2 10 C-0.4294516 6.3558226 -0.16179575 4.28758728 0 0 Z " fill="#000000" transform="translate(443,223)"/>
<path d="M0 0 C0.66 0 1.32 0 2 0 C2.33 2.64 2.66 5.28 3 8 C2.01 7.67 1.02 7.34 0 7 C0 4.69 0 2.38 0 0 Z " fill="#1A1919" transform="translate(199,214)"/>
<path d="M0 0 C0.99 0 1.98 0 3 0 C3 1.98 3 3.96 3 6 C1.68 5.34 0.36 4.68 -1 4 C-0.67 2.68 -0.34 1.36 0 0 Z " fill="#272526" transform="translate(354,212)"/>
<path d="M0 0 C1.32 0 2.64 0 4 0 C4 1.65 4 3.3 4 5 C2.68 4.34 1.36 3.68 0 3 C0 2.01 0 1.02 0 0 Z " fill="#262525" transform="translate(318,211)"/>
<path d="M0 0 C2.31 0 4.62 0 7 0 C6.34 1.32 5.68 2.64 5 4 C2.525 3.01 2.525 3.01 0 2 C0 1.34 0 0.68 0 0 Z " fill="#656536" transform="translate(156,176)"/>
<path d="M0 0 C0.33 0 0.66 0 1 0 C1 1.98 1 3.96 1 6 C1.99 6.33 2.98 6.66 4 7 C4 7.99 4 8.98 4 10 C3.01 9.67 2.02 9.34 1 9 C-0.4783226 6.04335481 -0.06032783 3.25770263 0 0 Z " fill="#6B6A6A" transform="translate(375,223)"/>
<path d="" fill="#000000" transform="translate(0,0)"/>
<path d="" fill="#000000" transform="translate(0,0)"/>
</svg>
